<svg width="29" height="46" viewBox="0 0 29 46" fill="none" xmlns="http://www.w3.org/2000/svg">
<path fill-rule="evenodd" clip-rule="evenodd" d="M6.86189 16.7577C6.08454 16.7577 5.31481 16.9191 4.59664 17.2328C3.87847 17.5465 3.22592 18.0063 2.67626 18.586C2.12659 19.1656 1.69058 19.8538 1.3931 20.6111C1.09562 21.3685 0.942514 22.1802 0.942514 22.9999C0.942514 23.8197 1.09562 24.6314 1.3931 25.3887C1.69058 26.1461 2.12659 26.8342 2.67626 27.4139C3.22592 27.9935 3.87847 28.4533 4.59664 28.767C5.31481 29.0807 6.08454 29.2422 6.86189 29.2422H12.7813V23.1256C12.7803 23.0418 12.7803 22.958 12.7813 22.8743V16.7577H6.86189ZM12.7813 13.1327H6.86189C5.29167 13.1327 3.78576 12.4749 2.67545 11.304C1.56513 10.1331 0.941367 8.54508 0.941367 6.88921C0.941367 5.23334 1.56513 3.64529 2.67545 2.47442C3.78576 1.30354 5.29167 0.645752 6.86189 0.645752H12.7813V13.1327ZM16.2188 0.645752V13.1327H22.1381C23.6882 13.1005 25.1645 12.4286 26.2499 11.2612C27.3353 10.0938 27.9433 8.52412 27.9433 6.88921C27.9433 5.2543 27.3353 3.68458 26.2499 2.51721C25.1645 1.34984 23.6882 0.677913 22.1381 0.645752H16.2188ZM22.1381 16.7553C20.5844 16.755 19.0928 17.3991 17.9854 18.5484C16.8779 19.6977 16.2434 21.2601 16.2188 22.8984V23.099C16.2377 24.3291 16.601 25.5258 17.2628 26.5389C17.9247 27.552 18.8556 28.3363 19.9388 28.7932C21.0219 29.2501 22.209 29.3594 23.3508 29.1072C24.4927 28.855 25.5384 28.2526 26.3566 27.3757C27.1748 26.4988 27.7291 25.3865 27.9498 24.1785C28.1705 22.9704 28.0478 21.7206 27.5971 20.5858C27.1464 19.4511 26.3878 18.4821 25.4165 17.8006C24.4453 17.1191 23.3047 16.7554 22.1381 16.7553ZM6.86189 32.8672C5.6906 32.8667 4.54548 33.2325 3.57136 33.9184C2.59725 34.6043 1.8379 35.5794 1.38935 36.7204C0.9408 37.8614 0.823204 39.1171 1.05143 40.3286C1.27966 41.5401 1.84347 42.653 2.67154 43.5266C3.4996 44.4002 4.55474 44.9952 5.70349 45.2363C6.85225 45.4775 8.04301 45.354 9.12519 44.8814C10.2074 44.4088 11.1323 43.6084 11.7831 42.5814C12.4339 41.5545 12.7813 40.347 12.7813 39.1118V32.8672H6.86189Z" fill="black"/>
</svg>
