<svg width="19" height="19" viewBox="0 0 51 58" fill="none" xmlns="http://www.w3.org/2000/svg">
<path d="M25.4777 0.917727C11.712 0.911282 0.5625 13.8148 0.5625 29.7412C0.5625 42.3353 7.53721 53.041 17.2506 56.9726C18.5587 57.3529 18.3583 56.2765 18.3583 55.5417V50.5466C10.8047 51.5714 10.4985 45.7835 9.99199 44.8167C8.96777 42.7929 6.54639 42.2773 7.27002 41.3105C8.99004 40.2857 10.7435 41.5683 12.7752 45.0423C14.2447 47.5625 17.1114 47.1371 18.5643 46.7181C18.8815 45.2035 19.5606 43.8499 20.4958 42.7994C12.6694 41.1751 9.40752 35.6451 9.40752 29.0709C9.40752 25.8804 10.3148 22.9478 12.0961 20.5824C10.9605 16.683 12.2019 13.3443 12.3688 12.848C15.6029 12.5128 18.965 15.5293 19.2267 15.7677C21.0636 15.1941 23.1621 14.8912 25.5111 14.8912C27.8713 14.8912 29.9754 15.207 31.829 15.7871C32.458 15.2328 35.5752 12.6418 38.5811 12.9576C38.7425 13.4539 39.956 16.7152 38.8872 20.563C40.6907 22.9349 41.6092 25.8933 41.6092 29.0902C41.6092 35.6773 38.325 41.2138 30.4764 42.8123C31.1486 43.5778 31.6824 44.4907 32.0465 45.4977C32.4107 46.5048 32.5979 47.5857 32.5972 48.6775V55.9285C32.6417 56.5085 32.5972 57.0822 33.4321 57.0822C43.2902 53.2343 50.3874 42.4513 50.3874 29.7476C50.3874 13.8148 39.2323 0.917727 25.4777 0.917727Z" fill="#ffffff"/>
</svg>
