<svg width="19" height="19" viewBox="0 0 40 49" fill="none" xmlns="http://www.w3.org/2000/svg">
<path d="M35.1667 0.875C36.3159 0.875 37.4181 1.42812 38.2308 2.41269C39.0435 3.39726 39.5 4.73261 39.5 6.125V42.875C39.5 44.2674 39.0435 45.6027 38.2308 46.5873C37.4181 47.5719 36.3159 48.125 35.1667 48.125H4.83333C3.68406 48.125 2.58186 47.5719 1.7692 46.5873C0.956546 45.6027 0.5 44.2674 0.5 42.875V6.125C0.5 4.73261 0.956546 3.39726 1.7692 2.41269C2.58186 1.42812 3.68406 0.875 4.83333 0.875H35.1667ZM34.0833 41.5625V27.65C34.0833 25.3804 33.3392 23.2038 32.0145 21.5989C30.6899 19.9941 28.8933 19.0925 27.02 19.0925C25.1783 19.0925 23.0333 20.4575 21.9933 22.505V19.5912H15.9483V41.5625H21.9933V28.6213C21.9933 26.6 23.3367 24.9463 25.005 24.9463C25.8095 24.9463 26.581 25.3334 27.1499 26.0226C27.7188 26.7118 28.0383 27.6466 28.0383 28.6213V41.5625H34.0833ZM8.90667 15.47C9.87206 15.47 10.7979 15.0054 11.4805 14.1783C12.1632 13.3513 12.5467 12.2296 12.5467 11.06C12.5467 8.61875 10.9217 6.62375 8.90667 6.62375C7.93553 6.62375 7.00417 7.09114 6.31748 7.9231C5.63078 8.75506 5.245 9.88343 5.245 11.06C5.245 13.5013 6.89167 15.47 8.90667 15.47ZM11.9183 41.5625V19.5912H5.91667V41.5625H11.9183Z" fill="#ffffff"/>
</svg>
